<svg width="67" height="81" viewBox="0 0 67 81" fill="none" xmlns="http://www.w3.org/2000/svg">
<path fill-rule="evenodd" clip-rule="evenodd" d="M0 63.4438L1.31419 61.9305C2.22435 62.6503 3.17703 63.1104 4.33174 63.1104C5.24189 63.1104 5.79266 62.7628 5.79266 62.1943V62.1656C5.79266 61.6237 5.44604 61.3476 3.75545 60.9305C1.72036 60.4294 0.40404 59.8896 0.40404 57.9571V57.9305C0.40404 56.1656 1.87772 55 3.94258 55C5.41627 55 6.67305 55.4458 7.69591 56.2372L6.5412 57.8487C5.64593 57.2515 4.76555 56.8896 3.91494 56.8896C3.06007 56.8896 2.6135 57.2658 2.6135 57.7362V57.7648C2.6135 58.4029 3.04732 58.6115 4.79532 59.0429C6.84529 59.5562 8 60.2638 8 61.9571V61.9857C8 63.9141 6.4689 65 4.28921 65C2.75811 65 1.21212 64.4847 0 63.4438" fill="#C07A5B"/>
<path fill-rule="evenodd" clip-rule="evenodd" d="M16.8345 60.0285V60C16.8345 58.3442 15.6508 56.963 13.9861 56.963C12.3195 56.963 11.1635 58.3157 11.1635 59.9756V60C11.1635 61.6599 12.3452 63.0391 14.0119 63.0391C15.6785 63.0391 16.8345 61.6863 16.8345 60.0285M9 60.0285V60C9 57.2539 11.1081 55 14.0119 55C16.9157 55 19 57.2254 19 59.9756V60C19 62.7502 16.888 65 13.9861 65C11.0823 65 9 62.7787 9 60.0285" fill="#C07A5B"/>
<path fill-rule="evenodd" clip-rule="evenodd" d="M24.9851 61.0421C26.0973 61.0421 26.7459 60.3855 26.7459 59.5269V59.4996C26.7459 58.5147 26.0548 57.9844 24.9405 57.9844H23.2243V61.0421H24.9851ZM21 56H25.1297C27.5412 56 29 57.412 29 59.4554V59.4848C29 61.7997 27.1797 63.0013 24.9128 63.0013H23.2243V66H21V56Z" fill="#C07A5B"/>
<path fill-rule="evenodd" clip-rule="evenodd" d="M37.8345 60.0285V60C37.8345 58.3442 36.6508 56.963 34.9861 56.963C33.3195 56.963 32.1635 58.3157 32.1635 59.9756V60C32.1635 61.6599 33.3452 63.0391 35.0119 63.0391C36.6785 63.0391 37.8345 61.6863 37.8345 60.0285M30 60.0285V60C30 57.2539 32.1081 55 35.0119 55C37.9157 55 40 57.2254 40 59.9756V60C40 62.7502 37.888 65 34.9861 65C32.0823 65 30 62.7787 30 60.0285" fill="#C07A5B"/>
<path fill-rule="evenodd" clip-rule="evenodd" d="M46.0993 60.858C47.0906 60.858 47.6592 60.2878 47.6592 59.4441V59.4147C47.6592 58.4721 47.0497 57.9861 46.0584 57.9861H44.0351V60.858H46.0993ZM42 56H46.2298C47.408 56 48.3213 56.3577 48.927 57.0141C49.445 57.5716 49.7215 58.3585 49.7215 59.3011V59.3284C49.7215 60.9442 48.9153 61.9562 47.739 62.4296L50 66H47.6183L45.6358 62.802H45.6086H44.0351V66H42V56Z" fill="#C07A5B"/>
<path fill-rule="evenodd" clip-rule="evenodd" d="M53.9375 58.0282H51V56H59V58.0282H56.0625V66H53.9375V58.0282Z" fill="#C07A5B"/>
<path fill-rule="evenodd" clip-rule="evenodd" d="M60 56H66.9342V57.9567H62.0097V59.987H66.3424V61.9415H62.0097V64.0412H67V66H60V56Z" fill="#C07A5B"/>
<mask id="mask0" mask-type="alpha" maskUnits="userSpaceOnUse" x="12" y="71" width="9" height="10">
<path fill-rule="evenodd" clip-rule="evenodd" d="M12.8496 71.4941H20.0876V80.9999H12.8496V71.4941Z" fill="white"/>
</mask>
<g mask="url(#mask0)">
<path fill-rule="evenodd" clip-rule="evenodd" d="M12.8496 71.4941H20.0876V73.3941H14.9416V75.4181H19.4756V77.3201H14.9416V81.0001H12.8496V71.4941Z" fill="#C07A5B"/>
</g>
<mask id="mask1" mask-type="alpha" maskUnits="userSpaceOnUse" x="0" y="0" width="67" height="81">
<path fill-rule="evenodd" clip-rule="evenodd" d="M0 81H67V0H0V81Z" fill="white"/>
</mask>
<g mask="url(#mask1)">
<path fill-rule="evenodd" clip-rule="evenodd" d="M22 81H24V71H22V81Z" fill="#C07A5B"/>
<path fill-rule="evenodd" clip-rule="evenodd" d="M30.0993 75.858C31.0906 75.858 31.6592 75.2878 31.6592 74.4441V74.4147C31.6592 73.4721 31.0497 72.9861 30.0584 72.9861H28.0351V75.858H30.0993ZM26 71H30.2298C31.408 71 32.3213 71.3577 32.9289 72.0141C33.445 72.5716 33.7215 73.3585 33.7215 74.3011V74.3284C33.7215 75.9442 32.9153 76.9562 31.739 77.4296L34 81H31.6183L29.6358 77.7999H29.6086H28.0351V81H26V71Z" fill="#C07A5B"/>
<path fill-rule="evenodd" clip-rule="evenodd" d="M36 71H38.3711L41.0011 75.2289L43.6289 71H46V81H43.814V74.4694L41.0011 78.7425H40.9442L38.1565 74.5136V81H36V71Z" fill="#C07A5B"/>
<path fill-rule="evenodd" clip-rule="evenodd" d="M48 71H54.9342V72.9567H50.0097V74.987H54.3424V76.9415H50.0097V79.0412H55V81H48V71Z" fill="#C07A5B"/>
<path fill-rule="evenodd" clip-rule="evenodd" d="M39.0479 36.3933C39.0479 36.823 38.833 37.2528 38.4395 37.5018C37.827 37.8713 37.0278 37.6825 36.6503 37.078L34.7968 34.0858V43.6047C34.7968 44.3256 34.2065 44.904 33.4956 44.904C32.7767 44.904 32.2004 44.3256 32.2004 43.6047V34.0858L30.3409 37.078C29.9674 37.6825 29.1622 37.8713 28.5497 37.5018C27.9453 37.1142 27.7586 36.319 28.1361 35.7085L32.357 28.9047C32.4594 28.722 32.6121 28.5493 32.8149 28.4268C33.0217 28.2982 33.2667 28.232 33.4956 28.232C33.7346 28.232 33.9655 28.2982 34.1763 28.4268C34.3771 28.5493 34.5298 28.722 34.6342 28.9047L38.8551 35.7085C38.9877 35.9193 39.0479 36.1523 39.0479 36.3933M11.5957 24.4546C11.5957 25.3864 11.6559 26.3202 11.7784 27.266C12.5133 33.0677 15.4732 38.2368 20.0958 41.8154C24.7184 45.398 30.4654 46.9583 36.2607 46.2153C42.062 45.4783 47.2287 42.5323 50.8031 37.9034C54.3855 33.2786 55.9538 27.5291 55.2108 21.7295C54.4718 15.9278 51.526 10.7748 46.8994 7.18413C42.2749 3.60152 36.5278 2.04518 30.7345 2.78017C24.9312 3.51718 19.7604 6.46721 16.1821 11.0961C13.1901 14.9699 11.5957 19.6349 11.5957 24.4546M58 24.549C58 29.947 56.2128 35.1602 52.8573 39.4939C48.8533 44.669 43.0801 47.9725 36.59 48.8019C30.0959 49.6232 23.6802 47.8741 18.4994 43.8697C13.3326 39.8654 10.0274 34.0778 9.20406 27.5974C8.36669 21.1069 10.1258 14.6787 14.1258 9.50359C18.1319 4.33853 23.9091 1.03104 30.4032 0.199649C36.8973 -0.625717 43.313 1.12542 48.4918 5.12976C53.6606 9.1381 56.9699 14.9137 57.7932 21.3981C57.9217 22.4604 58 23.5047 58 24.549" fill="#C07A5B"/>
<path fill-rule="evenodd" clip-rule="evenodd" d="M39 12.6802C39 12.9177 38.9403 13.1614 38.8091 13.3723L34.6288 20.3099C34.5254 20.5086 34.3743 20.6744 34.1754 20.8014C33.9666 20.9324 33.7379 21 33.5013 21C33.2745 21 33.0319 20.9324 32.8271 20.8014C32.6262 20.6744 32.4751 20.5086 32.3737 20.3099L28.1934 13.3723C27.8196 12.7478 28.0045 11.9389 28.6031 11.5499C29.2096 11.1669 30.0071 11.3574 30.377 11.9799L32.2185 15.0248V5.32281C32.2185 4.58769 32.7893 4 33.5013 4C34.2053 4 34.7899 4.58769 34.7899 5.32281V15.0269L36.6255 11.9799C36.9994 11.3574 37.7909 11.1669 38.3974 11.5581C38.7872 11.8058 39 12.2379 39 12.6802" fill="#C07A5B"/>
<path fill-rule="evenodd" clip-rule="evenodd" d="M11 21.362H57V20H11V21.362Z" fill="#C07A5B"/>
<path fill-rule="evenodd" clip-rule="evenodd" d="M11 28.356H57V27H11V28.356Z" fill="#C07A5B"/>
</g>
</svg>
