<svg width="47" height="61" viewBox="0 0 47 61" fill="none" xmlns="http://www.w3.org/2000/svg">
<path fill-rule="evenodd" clip-rule="evenodd" d="M20.1779 52V55.5623H16.8221V52H15V61H16.8221V57.3877H20.1779V61H22V52H20.1779Z" fill="#C07A5B"/>
<path fill-rule="evenodd" clip-rule="evenodd" d="M28.5199 56.4132C29.4821 56.4132 30.0323 55.9023 30.0323 55.1531V55.1264C30.0323 54.2858 29.4419 53.8531 28.4815 53.8531H26.5225V56.4132H28.5199ZM24.55 52.0822H28.6483C29.7888 52.0822 30.6725 52.4005 31.2629 52.9857C31.7613 53.4832 32.0316 54.1847 32.0316 55.0235V55.0502C32.0316 56.4894 31.2495 57.3949 30.109 57.8142L32.2999 60.9996H29.9939L28.0732 58.1459H28.0464H26.5225V60.9996H24.55V52.0822Z" fill="#C07A5B"/>
<mask id="mask0" mask-type="alpha" maskUnits="userSpaceOnUse" x="0" y="0" width="47" height="47">
<path fill-rule="evenodd" clip-rule="evenodd" d="M0 0.397095H46.1193V46.2593H0V0.397095Z" fill="white"/>
</mask>
<g mask="url(#mask0)">
<path fill-rule="evenodd" clip-rule="evenodd" d="M2.44555 23.2864C2.44555 24.1576 2.50114 25.0344 2.61807 25.9151C3.30814 31.3479 6.09334 36.1879 10.4446 39.5334C14.7959 42.8903 20.2053 44.3467 25.6549 43.6547C31.1218 42.9627 35.983 40.2063 39.3471 35.8734C42.7188 31.5424 44.1967 26.1629 43.4971 20.7339C42.8051 15.303 40.0256 10.4802 35.6782 7.12141C31.3193 3.77022 25.9118 2.31194 20.4602 3.00009C14.9953 3.69206 10.1283 6.45231 6.76233 10.7814C3.94262 14.409 2.44555 18.7781 2.44555 23.2864M46.1194 23.3722C46.1194 28.4276 44.4383 33.3057 41.2812 37.366C37.5107 42.204 32.0803 45.2941 25.9693 46.0756C19.8545 46.84 13.8202 45.2026 8.93797 41.453C4.07489 37.7072 0.967653 32.2934 0.19324 26.2258C-0.598424 20.1487 1.05583 14.1345 4.82438 9.29072C8.59293 4.46028 14.0368 1.36072 20.142 0.58297C26.2587 -0.187155 32.2969 1.45222 37.1714 5.19609C42.0384 8.9495 45.1513 14.3556 45.9296 20.4251C46.0484 21.4202 46.1194 22.3943 46.1194 23.3722" fill="#C07A5B"/>
</g>
<path fill-rule="evenodd" clip-rule="evenodd" d="M17.2713 28.6422C8.09148 28.6422 1.32304 25.7942 0.88791 25.6189L1.91727 18.8917L0.654053 22.098L1.9096 18.886C2.02653 18.9279 13.3935 23.2627 22.8398 21.2002C37.8891 17.9176 44.7515 19.3282 45.1003 19.3892L45.3055 26.1926C45.2518 26.1793 37.8489 24.9745 24.3273 27.9311C21.9926 28.4401 19.6003 28.6422 17.2713 28.6422" fill="#C07A5B"/>
</svg>
