<svg width="88" height="72" viewBox="0 0 88 72" fill="none" xmlns="http://www.w3.org/2000/svg">
<path fill-rule="evenodd" clip-rule="evenodd" d="M12.359 59.0902L11.4836 56.8369L10.6045 59.0902H12.359ZM10.8306 55H12.1694L15 62H13.4825L12.8788 60.4395H10.0865L9.4828 62H8L10.8306 55Z" fill="#C07A5B"/>
<path fill-rule="evenodd" clip-rule="evenodd" d="M17 55H18.3686L21.5326 59.309V55H23V62H21.7359L18.4655 57.5498V62H17V55Z" fill="#C07A5B"/>
<path fill-rule="evenodd" clip-rule="evenodd" d="M26.204 56.4189H24V55H30V56.4189H27.798V62H26.204V56.4189Z" fill="#C07A5B"/>
<path fill-rule="evenodd" clip-rule="evenodd" d="M31 62H32V55H31V62Z" fill="#C07A5B"/>
<path fill-rule="evenodd" clip-rule="evenodd" d="M38.359 59.0902L37.4836 56.8369L36.6045 59.0902H38.359ZM36.8306 55H38.1694L41 62H39.4825L38.8788 60.4395H36.0865L35.4828 62H34L36.8306 55Z" fill="#C07A5B"/>
<path fill-rule="evenodd" clip-rule="evenodd" d="M42.3063 58.3034V58.2814C42.3063 56.2234 43.8535 54.5374 46.0753 54.5374C47.4368 54.5374 48.2533 54.9934 48.9241 55.6554L47.9139 56.8234C47.355 56.3174 46.788 56.0074 46.0654 56.0074C44.8456 56.0074 43.9693 57.0194 43.9693 58.2614V58.2814C43.9693 59.5234 44.8257 60.5574 46.0654 60.5574C46.8918 60.5574 47.3969 60.2274 47.9638 59.7094L48.978 60.7334C48.2333 61.5294 47.4069 62.0274 46.0115 62.0274C43.8854 62.0274 42.3063 60.3814 42.3063 58.3034" fill="#C07A5B"/>
<path fill-rule="evenodd" clip-rule="evenodd" d="M54.4049 58.8719L53.4467 56.5239L52.4844 58.8719H54.4049ZM52.732 54.6099H54.1973L57.2955 61.9039H55.6346L54.9738 60.2779H51.9175L51.2567 61.9039H49.6337L52.732 54.6099Z" fill="#C07A5B"/>
<path fill-rule="evenodd" clip-rule="evenodd" d="M61.6201 58.1784C62.3947 58.1784 62.8378 57.7644 62.8378 57.1544V57.1344C62.8378 56.4524 62.3627 56.0984 61.5881 56.0984H60.0091V58.1784H61.6201ZM58.418 54.6604H61.7239C62.6422 54.6604 63.3549 54.9204 63.828 55.3944C64.2332 55.8004 64.4488 56.3684 64.4488 57.0524V57.0704C64.4488 58.2404 63.82 58.9744 62.9017 59.3164L64.6664 61.9024H62.8079L61.2588 59.5844H61.2388H60.0091V61.9024H58.418V54.6604Z" fill="#C07A5B"/>
<path fill-rule="evenodd" clip-rule="evenodd" d="M71.5938 58.3034V58.2814C71.5938 57.0394 70.6855 56.0074 69.4038 56.0074C68.1242 56.0074 67.2359 57.0194 67.2359 58.2614V58.2814C67.2359 59.5234 68.1442 60.5574 69.4238 60.5574C70.7054 60.5574 71.5938 59.5434 71.5938 58.3034M65.5729 58.3034V58.2814C65.5729 56.2234 67.1939 54.5374 69.4238 54.5374C71.6557 54.5374 73.2567 56.2014 73.2567 58.2614V58.2814C73.2567 60.3414 71.6357 62.0274 69.4038 62.0274C67.174 62.0274 65.5729 60.3614 65.5729 58.3034" fill="#C07A5B"/>
<path fill-rule="evenodd" clip-rule="evenodd" d="M74.1321 60.8484L75.0723 59.7204C75.7211 60.2584 76.4039 60.6004 77.2303 60.6004C77.8791 60.6004 78.2724 60.3404 78.2724 59.9164V59.8944C78.2724 59.4924 78.0249 59.2864 76.8171 58.9744C75.3598 58.6024 74.4215 58.2004 74.4215 56.7604V56.7404C74.4215 55.4264 75.4736 54.5564 76.9509 54.5564C78.0029 54.5564 78.9032 54.8904 79.6359 55.4784L78.8094 56.6784C78.1686 56.2324 77.5398 55.9664 76.9289 55.9664C76.322 55.9664 76.0006 56.2444 76.0006 56.5964V56.6164C76.0006 57.0924 76.31 57.2464 77.5597 57.5684C79.025 57.9524 79.8515 58.4784 79.8515 59.7404V59.7624C79.8515 61.2004 78.7575 62.0064 77.1984 62.0064C76.1024 62.0064 75.0005 61.6244 74.1321 60.8484" fill="#C07A5B"/>
<mask id="mask0" mask-type="alpha" maskUnits="userSpaceOnUse" x="0" y="63" width="8" height="8">
<path fill-rule="evenodd" clip-rule="evenodd" d="M0 63.6704H7.66099V70.9644H0V63.6704Z" fill="white"/>
</mask>
<g mask="url(#mask0)">
<path fill-rule="evenodd" clip-rule="evenodd" d="M4.77035 67.9324L3.81213 65.5844L2.84992 67.9324H4.77035ZM3.09746 63.6704H4.56274L7.66099 70.9644H6.00007L5.3393 69.3384H2.28297L1.6222 70.9644H-0.000793457L3.09746 63.6704Z" fill="#C07A5B"/>
</g>
<path fill-rule="evenodd" clip-rule="evenodd" d="M8.7865 63.7214H10.2518L13.6395 68.1794V63.7214H15.2106V70.9634H13.8571L10.3556 66.3594V70.9634H8.7865V63.7214Z" fill="#C07A5B"/>
<path fill-rule="evenodd" clip-rule="evenodd" d="M18.6335 65.1902H16.4335V63.7222H22.4224V65.1902H20.2245V70.9642H18.6335V65.1902Z" fill="#C07A5B"/>
<mask id="mask1" mask-type="alpha" maskUnits="userSpaceOnUse" x="0" y="0" width="88" height="72">
<path fill-rule="evenodd" clip-rule="evenodd" d="M0 71.0887H87.841V0.680664H0V71.0887Z" fill="white"/>
</mask>
<g mask="url(#mask1)">
<path fill-rule="evenodd" clip-rule="evenodd" d="M23.722 70.9626H25.313V63.7206H23.722V70.9626Z" fill="#C07A5B"/>
<path fill-rule="evenodd" clip-rule="evenodd" d="M30.5605 69.5672C31.2632 69.5672 31.6844 69.3192 31.6844 68.7792V68.7612C31.6844 68.2752 31.3251 67.9732 30.5086 67.9732H28.67V69.5672H30.5605ZM30.1373 66.6492C30.84 66.6492 31.2832 66.4232 31.2832 65.8832V65.8632C31.2832 65.3872 30.9119 65.1172 30.2411 65.1172H28.67V66.6492H30.1373ZM27.1209 63.7212H30.4767C31.3032 63.7212 31.9539 63.9492 32.3672 64.3632C32.6966 64.6932 32.8623 65.0992 32.8623 65.5952V65.6152C32.8623 66.4332 32.4311 66.8872 31.914 67.1772C32.7505 67.4992 33.2655 67.9832 33.2655 68.9552V68.9772C33.2655 70.3012 32.1915 70.9632 30.5605 70.9632H27.1209V63.7212Z" fill="#C07A5B"/>
<path fill-rule="evenodd" clip-rule="evenodd" d="M38.7347 67.9324L37.7765 65.5844L36.8143 67.9324H38.7347ZM37.0618 63.6704H38.5271L41.6253 70.9644H39.9644L39.3037 69.3384H36.2473L35.5866 70.9644H33.9636L37.0618 63.6704Z" fill="#C07A5B"/>
<path fill-rule="evenodd" clip-rule="evenodd" d="M41.9651 67.364V67.342C41.9651 65.284 43.5123 63.598 45.7342 63.598C47.0956 63.598 47.9121 64.054 48.5829 64.716L47.5727 65.884C47.0138 65.378 46.4468 65.068 45.7242 65.068C44.5044 65.068 43.6281 66.08 43.6281 67.322V67.342C43.6281 68.584 44.4845 69.618 45.7242 69.618C46.5506 69.618 47.0557 69.288 47.6227 68.77L48.6368 69.794C47.8922 70.59 47.0657 71.088 45.6703 71.088C43.5442 71.088 41.9651 69.442 41.9651 67.364" fill="#C07A5B"/>
<path fill-rule="evenodd" clip-rule="evenodd" d="M51.5957 65.1902H49.3958V63.7222H55.3846V65.1902H53.1867V70.9642H51.5957V65.1902Z" fill="#C07A5B"/>
<path fill-rule="evenodd" clip-rule="evenodd" d="M56.6118 63.7214H62.0636V65.1394H58.1908V66.6074H61.5985V68.0254H58.1908V69.5454H62.1155V70.9634H56.6118V63.7214Z" fill="#C07A5B"/>
<path fill-rule="evenodd" clip-rule="evenodd" d="M66.7376 67.2389C67.5121 67.2389 67.9553 66.8249 67.9553 66.2149V66.1949C67.9553 65.5129 67.4802 65.1589 66.7056 65.1589H65.1266V67.2389H66.7376ZM63.5355 63.7209H66.8414C67.7597 63.7209 68.4724 63.9809 68.9475 64.4549C69.3507 64.8609 69.5663 65.4289 69.5663 66.1129V66.1309C69.5663 67.3009 68.9375 68.0349 68.0192 68.3769L69.7839 70.9629H67.9254L66.3763 68.6469H66.3563H65.1266V70.9629H63.5355V63.7209Z" fill="#C07A5B"/>
<path fill-rule="evenodd" clip-rule="evenodd" d="M71.0801 70.9626H72.6712V63.7206H71.0801V70.9626Z" fill="#C07A5B"/>
<path fill-rule="evenodd" clip-rule="evenodd" d="M78.6333 67.9324L77.6751 65.5844L76.7129 67.9324H78.6333ZM76.9604 63.6704H78.4257L81.524 70.9644H79.863L79.2023 69.3384H76.1459L75.4852 70.9644H73.8622L76.9604 63.6704Z" fill="#C07A5B"/>
<path fill-rule="evenodd" clip-rule="evenodd" d="M82.6475 63.7214H84.2385V69.5134H87.8418V70.9634H82.6475V63.7214Z" fill="#C07A5B"/>
<path fill-rule="evenodd" clip-rule="evenodd" d="M52.7497 22.2214C53.3346 22.2494 53.9235 22.2674 54.5124 22.2794C55.1353 22.2914 55.7342 22.1774 56.2971 21.8974C56.7762 21.6654 57.1815 21.3434 57.4929 20.8954C57.9181 20.2934 58.1217 19.6254 58.1876 18.9034C58.2236 18.5154 58.2395 18.1314 58.1437 17.7514C58.1058 17.5954 58.0379 17.4494 57.8762 17.3994C57.6985 17.3494 57.5887 17.4594 57.4849 17.5794C57.451 17.6114 57.417 17.6554 57.3931 17.6954C57.2673 17.9254 57.1376 18.1494 57.0178 18.3774C56.7762 18.8694 56.4748 19.3174 56.0216 19.6454C55.4647 20.0514 54.8318 20.2214 54.1591 20.2634C53.3206 20.3114 52.5121 20.1694 51.7056 19.9554C51.4102 19.8794 51.1886 19.7674 51.0908 19.4654C51.0469 19.3354 51.0668 19.2814 51.2086 19.2714C51.3144 19.2634 51.4202 19.2714 51.522 19.2594C51.6218 19.2454 52.1129 19.1734 52.1269 19.1734C52.1488 19.1714 52.1828 19.1694 52.2027 19.1674C52.7677 19.0254 53.3127 18.8314 53.8157 18.5294C54.6023 18.0594 55.1313 17.3954 55.4108 16.5314C55.5066 16.3014 55.6284 15.6994 55.6383 15.6014C55.6603 15.3974 55.6803 15.0954 55.6523 14.8334C55.5286 14.4214 55.4227 14.0054 55.285 13.6034C55.2071 13.3914 55.0814 13.1814 54.9476 13.0034C54.8139 12.8134 54.6422 12.8334 54.5643 13.0534C54.4865 13.2674 54.4366 13.5014 54.3947 13.7354C54.3228 14.1914 54.2849 14.6574 54.185 15.1054C54.0393 15.7634 53.6221 16.2534 53.0911 16.6354C52.594 16.9894 52.031 17.1554 51.4262 17.2174C50.8093 17.2814 50.2044 17.2034 49.6055 17.0954C49.4299 17.0654 49.2961 16.9234 49.2961 16.7914C49.2921 16.6534 49.364 16.5894 49.5896 16.5394C49.6035 16.5374 49.6115 16.5314 49.6215 16.5314C50.2603 16.3454 50.8852 16.1214 51.4601 15.7894C52.1229 15.4114 52.6938 14.9354 53.139 14.3194C53.4823 13.8354 53.4764 13.3114 53.1769 12.8874C52.3904 11.7834 51.5519 10.7394 50.4679 9.91336C50.1785 9.68936 49.897 9.46936 49.5476 9.34336C49.2542 9.24336 49.0905 9.35936 49.1304 9.65936C49.1424 9.75336 49.1564 9.86136 49.2023 9.94536C49.4738 10.4494 49.7453 10.9594 50.0387 11.4454C50.3801 12.0294 50.7474 12.5894 51.1048 13.1654C51.2525 13.4094 51.2086 13.5694 50.973 13.7414C50.8393 13.8354 50.6995 13.9294 50.5538 14.0094C50.0427 14.2994 49.4898 14.5034 48.9148 14.6234C48.4078 14.7174 47.8907 14.7754 47.3737 14.8454C47.3258 14.8574 47.2779 14.8594 47.2319 14.8454C47.0243 14.7954 46.7908 14.7634 46.7129 14.5174C46.4913 13.8434 46.0941 13.2914 45.4852 12.9114C44.9562 12.5814 44.3852 12.4834 43.7903 12.7134C43.0717 12.9974 42.5985 13.5314 42.2911 14.2274C42.1873 14.4594 42.1474 14.7514 41.834 14.8034C41.6763 14.8294 41.5146 14.8454 41.3608 14.8334C40.724 14.7714 40.0892 14.6774 39.4763 14.4834C38.9034 14.3074 38.3644 14.0674 37.8753 13.7074C37.7016 13.5794 37.6717 13.4094 37.7715 13.2154C37.8054 13.1494 38.7936 11.5714 38.9194 11.3594C39.1609 10.9414 39.4065 10.5314 39.63 10.1014C39.7139 9.94536 39.7458 9.76336 39.7678 9.58536C39.7977 9.39936 39.6879 9.28936 39.5003 9.31136C39.3645 9.33736 39.2328 9.38136 39.113 9.45136C38.3085 9.91736 37.6357 10.5394 37.0209 11.2234C36.5318 11.7734 36.1026 12.3814 35.6654 12.9774C35.4358 13.2914 35.4119 13.6674 35.5856 14.0174C35.905 14.6574 36.422 15.1154 36.9989 15.5154C37.7336 16.0174 38.5481 16.3454 39.4065 16.5554C39.6061 16.6034 39.672 16.8294 39.5183 16.9674C39.4444 17.0294 39.3326 17.0854 39.2328 17.0994C38.9453 17.1554 38.6579 17.1894 38.3684 17.2214C37.7216 17.2934 37.0848 17.2394 36.4779 16.9934C35.4638 16.5714 34.785 15.8514 34.6353 14.7094C34.5714 14.2234 34.4896 13.7354 34.4057 13.2434C34.3838 13.0994 34.3379 12.9274 34.1742 12.8894C34.0045 12.8534 33.9266 13.0134 33.8488 13.1334C33.5833 13.5454 33.4535 14.0054 33.3457 14.4774C33.164 15.3014 33.2958 16.0974 33.6092 16.8634C33.8867 17.5454 34.3518 18.0734 34.9807 18.4614C35.5576 18.8294 36.1864 19.0834 36.8672 19.1814C37.1387 19.2214 37.4102 19.2454 37.6896 19.2654C37.7715 19.2794 37.8693 19.3114 37.8314 19.4014C37.7495 19.6054 37.6717 19.8254 37.4201 19.8934C37.2325 19.9414 37.0389 19.9874 36.8472 20.0354C36.0287 20.2374 35.2043 20.3374 34.3558 20.2214C33.6531 20.1174 33.0363 19.8514 32.5252 19.3474C32.1459 18.9634 31.9463 18.4654 31.6848 18.0114C31.577 17.8174 31.4353 17.6214 31.2736 17.4594C31.1358 17.3214 30.9302 17.3754 30.8463 17.5534C30.7805 17.6874 30.7166 17.8454 30.7166 17.9934C30.7086 18.3894 30.7206 18.7934 30.7505 19.1934C30.8064 19.8474 31.0599 20.4374 31.4572 20.9654C32.0821 21.8014 32.9644 22.1954 33.9765 22.2614C34.6952 22.3054 35.4179 22.2454 36.1425 22.2214C36.3222 22.2134 36.438 22.2594 36.4739 22.3814C36.4979 22.5074 36.406 22.7014 36.2863 22.7594C35.9708 22.9114 35.6514 23.0614 35.332 23.2154C34.4716 23.6334 33.6691 24.1274 32.9864 24.8074C32.0801 25.6994 31.557 26.7854 31.3275 28.0154C31.1777 28.8234 31.2256 29.6254 31.3554 30.4314C31.4572 31.0134 31.575 31.5954 31.8106 32.1334C32.2797 33.1874 32.8027 34.2074 33.731 34.9574C34.0205 35.1894 34.3379 35.3454 34.7232 35.3434C34.9447 35.3374 35.0346 35.2054 34.9507 34.9934C34.8968 34.8594 34.6193 34.3954 34.6054 34.3534C34.5515 34.1954 33.8268 32.9714 33.6292 32.5554C33.3058 31.8714 33.0802 31.1534 33.0523 30.4014C33.0303 29.9534 33.0562 29.5014 33.0962 29.0554C33.164 28.3374 33.3796 27.6694 33.8268 27.0834C34.25 26.5214 34.811 26.1134 35.354 25.6794C35.3999 25.6434 35.5177 25.6394 35.5676 25.6754C35.6255 25.7054 35.6734 25.8054 35.6734 25.8754C35.6814 26.0134 35.6494 26.1554 35.6335 26.2954C35.5576 27.1854 35.5636 28.0794 35.6434 28.9714C35.6854 29.5094 35.7732 30.0494 35.861 30.5794C35.9229 30.9414 36.0307 31.2994 36.1006 31.6634C36.1585 32.0214 36.5278 32.9994 36.6396 33.2754C36.9909 34.1774 37.4541 35.0134 38.027 35.7834C38.552 36.4914 39.1569 37.1114 39.8596 37.6294C40.5064 38.1094 41.2051 38.4814 41.9657 38.7474C42.6944 39.0014 43.437 39.1634 44.2036 39.1894C45.2356 39.2274 46.2238 39.0174 47.188 38.6534C48.2161 38.2534 49.1145 37.6594 49.901 36.8934C50.5518 36.2614 51.0908 35.5394 51.5499 34.7514C51.9412 34.0834 52.2666 33.3794 52.5002 32.6434C52.7038 32.0014 52.8695 31.3454 53.0132 30.6854C53.129 30.1294 53.2069 29.5594 53.2568 28.9854C53.3386 27.9634 53.3486 26.9414 53.2208 25.9214C53.2128 25.8454 53.2707 25.7054 53.3346 25.6774C53.3945 25.6394 53.5283 25.6734 53.5941 25.7214C53.8517 25.9114 54.1012 26.1134 54.3408 26.3254C54.8019 26.7134 55.1992 27.1574 55.4467 27.7194C55.6623 28.1794 55.7441 28.6674 55.82 29.1614C55.9797 30.3354 55.7861 31.4494 55.287 32.5074C55.0015 33.1194 54.6502 33.6954 54.3268 34.2854C54.2469 34.4274 54.1691 34.5654 54.0733 34.7254H54.0772L54.0733 34.7334C54.0733 34.7334 53.8397 35.2154 53.9235 35.3314C54.0054 35.4494 54.0673 35.4494 54.2529 35.4214C54.4486 35.3894 55.1133 35.0994 55.5206 34.6994C56.0895 34.1414 56.6205 33.0194 56.7463 32.7634C56.89 32.4754 57.0338 32.1854 57.1815 31.9054C57.1855 31.8814 57.1975 31.8554 57.2034 31.8314C57.3951 31.2154 57.5328 30.5834 57.6107 29.9434C57.6905 29.2354 57.6746 28.5274 57.5288 27.8274C57.3631 27.0254 57.0637 26.2894 56.5966 25.6174C55.8759 24.5774 54.8798 23.8714 53.7618 23.3174C53.3865 23.1234 52.9972 22.9434 52.614 22.7634C52.4842 22.6994 52.3864 22.4954 52.4323 22.3734C52.4842 22.2234 52.606 22.2114 52.7497 22.2214" fill="#C07A5B"/>
<path fill-rule="evenodd" clip-rule="evenodd" d="M44.9732 45.7468C38.5131 45.7468 32.7219 42.8388 28.8271 38.2628L62.5545 12.6388C64.8383 16.0308 66.1798 20.1108 66.1798 24.5048C66.1798 36.2128 56.6595 45.7468 44.9732 45.7468M44.9732 3.25679C51.2994 3.25679 56.9889 6.05279 60.8777 10.4728L27.1922 36.0648C25.0242 32.7368 23.7585 28.7648 23.7585 24.5048C23.7585 12.7828 33.2769 3.25679 44.9732 3.25679M44.9732 0.680786C31.8395 0.680786 21.1913 11.3488 21.1913 24.5048C21.1913 37.6568 31.8395 48.3188 44.9732 48.3188C58.0988 48.3188 68.7431 37.6568 68.7431 24.5048C68.7431 11.3488 58.0988 0.680786 44.9732 0.680786" fill="#C07A5B"/>
</g>
</svg>
