<svg width="63" height="88" viewBox="0 0 63 88" fill="none" xmlns="http://www.w3.org/2000/svg">
<path fill-rule="evenodd" clip-rule="evenodd" d="M12 27.0374V26.9977C12 22.991 15.054 20 18.9698 20C21.8546 20 23.7999 21.437 24.9063 23.4895L21.29 25.6566C20.8053 24.6971 20.1127 24.0278 18.9126 24.0278C17.4336 24.0278 16.4575 25.3501 16.4575 26.9602V26.9977C16.4575 28.7436 17.4702 29.9722 18.9126 29.9722C20.147 29.9722 20.8419 29.2818 21.3837 28.2825L25 30.3748C23.8936 32.3688 22.058 34 18.8006 34C15.166 34 12 31.1986 12 27.0374" fill="#C07A5B"/>
<path fill-rule="evenodd" clip-rule="evenodd" d="M25 29.4389V23H29.2951V28.1332C29.2951 28.9738 29.8265 29.4585 30.4711 29.4585C31.1134 29.4585 31.7003 28.9738 31.7003 28.1332V23H36V32.7664H31.7003V31.4607C31.0372 32.2664 29.9975 33 28.5396 33C26.3632 33 25 31.6397 25 29.4389" fill="#C07A5B"/>
<path fill-rule="evenodd" clip-rule="evenodd" d="M24.5 11.7928C15.8407 11.7928 8.79261 18.8373 8.79261 27.5C8.79261 36.1605 15.8407 43.2072 24.5 43.2072C33.1593 43.2072 40.2074 36.1605 40.2074 27.5C40.2074 18.8373 33.1593 11.7928 24.5 11.7928M24.5 45C14.8503 45 7 37.151 7 27.5C7 17.8513 14.8503 10 24.5 10C34.1497 10 42 17.8513 42 27.5C42 37.151 34.1497 45 24.5 45" fill="#C07A5B"/>
<mask id="mask0" mask-type="alpha" maskUnits="userSpaceOnUse" x="28" y="0" width="26" height="25">
<path fill-rule="evenodd" clip-rule="evenodd" d="M28.3772 0.860718H53.2824V24.5102H28.3772V0.860718Z" fill="white"/>
</mask>
<g mask="url(#mask0)">
<path fill-rule="evenodd" clip-rule="evenodd" d="M46.6787 24.5102L45.8304 22.9465C49.3292 21.052 51.5027 17.4092 51.5027 13.4357C51.5027 7.48447 46.6584 2.64022 40.7049 2.64022C35.5952 2.64022 31.1469 6.26947 30.1232 11.2645L28.3772 10.909C29.5697 5.08597 34.7537 0.860474 40.7049 0.860474C47.6394 0.860474 53.2824 6.50122 53.2824 13.4357C53.2824 18.064 50.7534 22.3075 46.6787 24.5102" fill="#C07A5B"/>
</g>
<path fill-rule="evenodd" clip-rule="evenodd" d="M41.8468 53C35.871 53 30.4381 49.5088 28 44.1023L29.663 43.3689C31.8067 48.1241 36.591 51.1986 41.8468 51.1986C49.198 51.1986 55.1806 45.2751 55.1806 37.9943C55.1806 30.7203 49.198 24.8014 41.8468 24.8014C41.3568 24.8014 40.8715 24.8287 40.3908 24.8811L40.1838 23.0934C40.7335 23.0319 41.2901 23 41.8468 23C50.2031 23 57 29.7251 57 37.9943C57 46.268 50.2031 53 41.8468 53" fill="#C07A5B"/>
<mask id="mask1" mask-type="alpha" maskUnits="userSpaceOnUse" x="0" y="56" width="7" height="9">
<path fill-rule="evenodd" clip-rule="evenodd" d="M0 56.0612H6.99907V64.0274H0V56.0612Z" fill="white"/>
</mask>
<g mask="url(#mask1)">
<path fill-rule="evenodd" clip-rule="evenodd" d="M2.57042 57.676H-0.000915527V56.0612H6.99908V57.676H4.43008V64.0274H2.57042V57.676Z" fill="#C07A5B"/>
</g>
<path fill-rule="evenodd" clip-rule="evenodd" d="M8 56H13.9434V57.5664H9.72144V59.1881H13.4363V60.7545H9.72144V62.4336H14V64H8V56Z" fill="#C07A5B"/>
<path fill-rule="evenodd" clip-rule="evenodd" d="M16 56H17.8378V62.3982H22V64H16V56Z" fill="#C07A5B"/>
<path fill-rule="evenodd" clip-rule="evenodd" d="M28.6045 60.6745L27.4789 58.0993L26.3486 60.6745H28.6045ZM26.6394 56H28.3606L32 64H30.049L29.2728 62.2166H25.6826L24.9065 64H23L26.6394 56Z" fill="#C07A5B"/>
<path fill-rule="evenodd" clip-rule="evenodd" d="M36 60.5252V60.4988C36 58.0259 37.8552 56 40.5194 56C42.152 56 43.1311 56.5479 43.9354 57.3434L42.7241 58.7469C42.0539 58.1389 41.374 57.7664 40.5075 57.7664C39.0449 57.7664 37.994 58.9824 37.994 60.4748V60.4988C37.994 61.9912 39.0209 63.2336 40.5075 63.2336C41.4985 63.2336 42.1041 62.8371 42.784 62.2147L44 63.4451C43.1071 64.4016 42.1161 65 40.4428 65C37.8935 65 36 63.0222 36 60.5252" fill="#C07A5B"/>
<path fill-rule="evenodd" clip-rule="evenodd" d="M52.0522 60.5252V60.4988C52.0522 59.0064 50.9883 57.7664 49.4871 57.7664C47.9883 57.7664 46.9478 58.9824 46.9478 60.4748V60.4988C46.9478 61.9912 48.0117 63.2336 49.5105 63.2336C51.0117 63.2336 52.0522 62.0152 52.0522 60.5252M45 60.5252V60.4988C45 58.0259 46.8987 56 49.5105 56C52.1247 56 54 57.9995 54 60.4748V60.4988C54 62.9741 52.1013 65 49.4871 65C46.8753 65 45 62.9981 45 60.5252" fill="#C07A5B"/>
<path fill-rule="evenodd" clip-rule="evenodd" d="M55 56H56.5966L60.2881 60.9246V56H62V64H60.5252L56.7098 58.9141V64H55V56Z" fill="#C07A5B"/>
<path fill-rule="evenodd" clip-rule="evenodd" d="M4.38609 72.4115C5.94724 72.4115 7.0048 71.4416 7.0048 70.0232V69.9989C7.0048 68.5827 5.94724 67.5863 4.38609 67.5863H2.91127V72.4115H4.38609ZM1 66H4.38609C7.11511 66 9 67.7255 9 69.9768V69.9989C9 72.2524 7.11511 74 4.38609 74H1V66Z" fill="#C07A5B"/>
<path fill-rule="evenodd" clip-rule="evenodd" d="M16.0522 70.5252V70.4988C16.0522 69.0064 14.9883 67.7664 13.4871 67.7664C11.9883 67.7664 10.9478 68.9824 10.9478 70.4748V70.4988C10.9478 71.9912 12.0117 73.2336 13.5105 73.2336C15.0117 73.2336 16.0522 72.0152 16.0522 70.5252M9 70.5252V70.4988C9 68.0259 10.8987 66 13.5105 66C16.1247 66 18 67.9995 18 70.4748V70.4988C18 72.9741 16.1013 75 13.4871 75C10.8753 75 9 72.9981 9 70.5252" fill="#C07A5B"/>
<path fill-rule="evenodd" clip-rule="evenodd" d="M23.9185 72.4579C24.719 72.4579 25.1988 72.1839 25.1988 71.5874V71.5675C25.1988 71.0307 24.7895 70.697 23.8593 70.697H21.7648V72.4579H23.9185ZM23.4363 69.2345C24.2368 69.2345 24.7417 68.9848 24.7417 68.3883V68.3662C24.7417 67.8404 24.3187 67.5421 23.5546 67.5421H21.7648V69.2345H23.4363ZM20 66H23.8229C24.7645 66 25.5058 66.2519 25.9766 66.7092C26.3519 67.0737 26.5406 67.5222 26.5406 68.0701V68.0922C26.5406 68.9959 26.0494 69.4974 25.4604 69.8177C26.4133 70.1734 27 70.7081 27 71.7818V71.8061C27 73.2687 25.7765 74 23.9185 74H20V66Z" fill="#C07A5B"/>
<path fill-rule="evenodd" clip-rule="evenodd" d="M28 66H29.8378V72.3982H34V74H28V66Z" fill="#C07A5B"/>
<path fill-rule="evenodd" clip-rule="evenodd" d="M36 66H41.9434V67.5664H37.7214V69.1881H41.4363V70.7545H37.7214V72.4336H42V74H36V66Z" fill="#C07A5B"/>
<path fill-rule="evenodd" clip-rule="evenodd" d="M50.3861 72.4115C51.9472 72.4115 53.0048 71.4416 53.0048 70.0232V69.9989C53.0048 68.5827 51.9472 67.5863 50.3861 67.5863H48.9113V72.4115H50.3861ZM47 66H50.3861C53.1151 66 55 67.7255 55 69.9768V69.9989C55 72.2524 53.1151 74 50.3861 74H47V66Z" fill="#C07A5B"/>
<mask id="mask2" mask-type="alpha" maskUnits="userSpaceOnUse" x="56" y="66" width="7" height="8">
<path fill-rule="evenodd" clip-rule="evenodd" d="M56.5667 66.027H62.7692V73.9932H56.5667V66.027Z" fill="white"/>
</mask>
<g mask="url(#mask2)">
<path fill-rule="evenodd" clip-rule="evenodd" d="M56.5667 66.027H62.7114V67.5868H58.3464V69.2016H62.1872V70.7614H58.3464V72.4334H62.7699V73.9932H56.5667V66.027Z" fill="#C07A5B"/>
</g>
<path fill-rule="evenodd" clip-rule="evenodd" d="M2 82.033V81.9989C2 78.7011 4.55466 76 8.21353 76C10.4617 76 11.8069 76.7288 12.9134 77.7901L11.2454 79.6645C10.3284 78.8514 9.39026 78.3549 8.19715 78.3549C6.18758 78.3549 4.74181 79.9787 4.74181 81.9693V81.9989C4.74181 83.9894 6.15483 85.6474 8.19715 85.6474C9.5587 85.6474 10.3939 85.1167 11.3296 84.2877L13 85.9298C11.7741 87.2052 10.4126 88 8.11293 88C4.60379 88 2 85.365 2 82.033" fill="#C07A5B"/>
<path fill-rule="evenodd" clip-rule="evenodd" d="M23.4028 82.033V81.9989C23.4028 80.0106 21.9823 78.3549 19.9834 78.3549C17.9845 78.3549 16.5972 79.9787 16.5972 81.9693V81.9989C16.5972 83.9894 18.0155 85.6474 20.0166 85.6474C22.0155 85.6474 23.4028 84.0235 23.4028 82.033M14 82.033V81.9989C14 78.7011 16.5307 76 20.0166 76C23.5003 76 26 78.6669 26 81.9693V81.9989C26 85.3012 23.467 88 19.9834 88C16.4997 88 14 85.3308 14 82.033" fill="#C07A5B"/>
<path fill-rule="evenodd" clip-rule="evenodd" d="M33.5969 85.6867C34.7398 85.6867 35.4278 85.2744 35.4278 84.3816V84.3486C35.4278 83.543 34.8391 83.0459 33.5137 83.0459H30.5214V85.6867H33.5969ZM32.9065 80.8504C34.0494 80.8504 34.7744 80.4735 34.7744 79.583V79.5501C34.7744 78.7609 34.1672 78.3133 33.075 78.3133H30.5214V80.8504H32.9065ZM28 76H33.4606C34.8067 76 35.8642 76.3769 36.5361 77.0624C37.0764 77.609 37.3443 78.278 37.3443 79.1025V79.1378C37.3443 80.4923 36.6377 81.2438 35.7973 81.7244C37.1595 82.2568 38 83.0624 38 84.6737V84.7091C38 86.9046 36.2521 88 33.5969 88H28V76Z" fill="#C07A5B"/>
<path fill-rule="evenodd" clip-rule="evenodd" d="M45.1261 81.8292C46.3661 81.8292 47.0747 81.1439 47.0747 80.1311V80.0981C47.0747 78.9653 46.3139 78.3835 45.0761 78.3835H42.546V81.8292H45.1261ZM40 76H45.2896C46.7613 76 47.9037 76.4287 48.6645 77.2177C49.3073 77.8866 49.6548 78.831 49.6548 79.9592V79.9945C49.6548 81.9329 48.6464 83.1505 47.1747 83.7158L50 88H47.027L44.5469 84.1609H44.5128H42.546V88H40V76Z" fill="#C07A5B"/>
<path fill-rule="evenodd" clip-rule="evenodd" d="M52 76H60.9142V78.3482H54.5817V80.7812H60.1557V83.1293H54.5817V85.6518H61V88H52V76Z" fill="#C07A5B"/>
</svg>
